<svg width="256" height="256" viewBox="0 0 256 256" fill="none" xmlns="http://www.w3.org/2000/svg">
<rect width="256" height="256" fill="white"/>
<path d="M121.571 50.8091C118.626 52.5916 117.154 54.9166 89.8734 102.425C77.6282 123.737 64.5306 146.367 60.8106 152.8C47.0154 176.593 40.8154 187.753 39.9629 190.465C37.7928 197.208 42.5979 204.803 49.728 205.966C51.743 206.276 88.1683 206.586 130.484 206.586L207.597 206.663L210.542 204.648C212.17 203.486 214.185 201.471 215.037 200.076C216.975 196.975 217.052 191.24 215.347 187.83C212.945 183.18 141.256 59.0241 139.164 55.9241C136.141 51.3516 132.654 49.3365 127.926 49.3365C125.446 49.3365 123.121 49.879 121.571 50.8091ZM132.421 62.6667C135.444 67.4717 169.622 126.76 174.504 135.672C180.704 147.065 179.852 147.22 169.932 136.525C164.507 130.712 128.081 90.2569 119.169 80.1043C117.774 78.5543 116.611 76.6168 116.611 75.8418C116.611 75.0668 118.704 70.8818 121.261 66.5417C126.996 56.8541 128.391 56.3891 132.421 62.6667ZM150.479 124.435C157.144 131.487 162.182 137.377 161.717 137.532C161.252 137.687 152.416 132.107 142.031 125.21C115.604 107.617 108.784 102.812 108.241 101.417C107.699 99.867 110.256 87.3119 111.419 85.8394C112.349 84.6769 118.626 90.8769 150.479 124.435ZM96.8484 114.98C94.6009 122.73 72.5907 190.698 71.3507 193.643C70.7307 195.115 69.5682 196.588 68.9481 196.898C66.9331 197.595 53.3705 197.44 51.278 196.665C48.2554 195.503 48.2554 193.875 51.278 188.295C54.9205 181.32 88.0133 123.97 92.0434 117.537C93.7484 114.747 95.6859 111.647 96.3059 110.562C98.0884 107.695 98.3209 109.865 96.8484 114.98ZM124.826 121.49C145.209 134.2 145.519 134.897 127.229 127.535C120.719 124.977 113.744 121.877 111.574 120.792C107.931 118.855 107.699 118.467 107.466 115.367C107.234 112.732 107.466 112.112 108.551 112.112C109.249 112.112 116.611 116.297 124.826 121.49ZM98.4759 158.69C96.2284 188.45 95.9959 190.698 94.6009 191.86C93.5934 192.713 82.3558 196.588 80.8833 196.588C80.2633 196.588 80.1083 195.658 80.4958 193.643C80.9608 190.698 92.9734 147.685 97.0034 134.587C100.413 123.195 100.723 127.767 98.4759 158.69ZM120.719 131.565C126.919 133.89 131.336 135.905 131.336 136.525C131.336 136.757 127.151 136.912 122.036 136.912H112.736L111.574 134.122C110.954 132.572 110.411 130.635 110.411 129.86C110.411 128.077 111.651 128.31 120.719 131.565ZM109.171 160.938C112.504 184.808 112.504 182.173 109.094 184.498C105.994 186.668 104.598 186.978 103.823 185.815C103.358 184.963 104.676 151.483 105.451 146.212C105.994 142.802 105.994 142.802 106.614 145.05C106.924 146.29 108.086 153.498 109.171 160.938ZM138.001 144.275C138.466 145.36 132.886 156.055 129.786 160.163C127.849 162.72 126.919 161.868 121.494 152.258C118.006 145.98 117.386 144.352 118.239 143.81C118.859 143.422 123.431 143.112 128.469 143.112C135.831 143.112 137.691 143.345 138.001 144.275ZM152.571 143.887C153.656 144.275 154.586 144.972 154.586 145.36C154.586 146.135 140.404 158.768 139.086 159.233C137.614 159.775 138.311 157.14 141.024 152.413C146.449 142.802 147.611 141.95 152.571 143.887ZM167.762 148.925C169.079 149.623 170.087 150.63 170.087 151.25C170.087 152.878 138.156 170.315 137.071 169.308C136.219 168.455 162.879 147.763 164.817 147.763C165.204 147.763 166.522 148.305 167.762 148.925ZM119.556 160.395C124.671 169.153 124.749 169.23 122.424 172.253C118.781 177.058 118.006 176.05 115.526 162.565C113.356 151.095 113.899 150.785 119.556 160.395ZM183.882 159.543C188.764 163.34 192.329 167.68 191.322 168.688C189.927 170.005 120.641 186.9 119.789 186.125C119.556 185.815 178.379 156.288 179.232 156.288C179.464 156.288 181.557 157.76 183.882 159.543ZM198.607 177.988C200.777 180.39 207.287 192.248 207.287 193.953C207.287 197.363 206.977 197.363 172.877 197.363C154.896 197.363 132.576 197.13 123.276 196.82L106.226 196.355L111.264 194.96C113.976 194.185 133.351 189.845 154.199 185.428C175.124 180.933 192.872 177.135 193.724 176.98C196.592 176.36 197.134 176.438 198.607 177.988Z" fill="#212121"/>
</svg>
