<svg width="188" height="219" viewBox="0 0 188 219" fill="none" xmlns="http://www.w3.org/2000/svg">
<g clip-path="url(#clip0_1883_1069)">
<path d="M161.079 111.91C161.782 112.239 162.307 112.491 162.835 112.734C168.664 115.428 173.871 119.043 178.601 123.368C182.602 127.031 185.056 131.603 186.462 136.794C187.711 141.404 188.094 146.108 187.988 150.864C187.838 157.515 186.65 163.995 184.694 170.339C181.289 181.365 176.006 191.376 168.502 200.17C165.11 204.144 161.297 207.649 156.967 210.595C153.005 213.288 148.688 215.12 144.035 216.187C140.622 216.968 137.213 217.758 133.728 218.155C127.575 218.855 121.409 219.235 115.21 218.829C100.824 217.89 87.5982 213.365 75.2626 206.027C69.7361 202.74 64.4184 199.145 59.2796 195.282C47.0462 186.083 38.0853 174.317 31.9963 160.307C29.1415 153.741 27.1942 146.89 25.7241 139.901C24.3521 133.378 23.4402 126.779 22.8224 120.136C22.2088 113.502 21.4674 106.877 20.7814 100.252C20.7558 100.021 20.7047 99.7948 20.6578 99.5088C20.4106 99.3807 20.1678 99.2142 19.9036 99.1288C14.9097 97.5237 10.8916 94.5013 7.62762 90.4672C2.96607 84.6956 0.45634 78.0702 0.0217171 70.6679C-0.13594 67.9742 0.622519 67.176 3.27713 67.0692C5.53546 66.9796 7.68301 67.4748 9.76665 68.2859C12.9581 69.5324 15.7576 71.415 18.3355 73.6476C20.1933 75.257 21.8807 77.0372 23.4189 78.9582C23.7726 79.4022 24.1476 79.829 24.4842 80.2303C24.9657 80.1151 24.9316 79.7735 25.0125 79.5131C27.2709 72.1535 31.4807 66.0874 37.2203 61.0415C38.7159 59.7267 40.3564 58.604 42.1461 57.7246C42.6105 57.494 43.1133 57.3019 43.6204 57.2038C44.626 57.0074 45.4441 57.3318 46.0278 58.224C47.0377 59.7566 47.6982 61.43 48.0902 63.2187C48.7336 66.1728 48.7293 69.1525 48.2734 72.1151C46.9866 80.4907 43.3264 87.765 37.9277 94.2153C37.5569 94.655 37.1905 95.1033 36.8496 95.5131C38.8821 99.4277 47.0079 106.181 51.8654 107.983C51.8952 106.745 51.9634 105.601 51.1453 104.533C48.2862 100.798 48.5418 95.4789 51.7205 91.9528C52.1893 91.4362 52.7091 90.9539 53.263 90.527C53.8383 90.083 54.2175 89.5537 54.4945 88.8749C55.0867 87.4149 55.76 85.9934 56.3949 84.5718C56.3693 84.4907 56.3693 84.4224 56.331 84.384C53.9874 81.8611 53.1267 78.7149 52.7432 75.4278C52.1935 70.732 52.4918 66.0746 53.8596 61.5367C54.3624 59.8676 55.1038 58.271 55.8239 56.4097C55.7046 56.1621 55.4915 55.6883 55.2572 55.2315C53.459 51.731 52.5301 48.0256 52.6409 44.0854C52.8369 37.2039 55.5384 31.5347 60.8775 27.1591C61.1502 26.9371 61.4271 26.7279 61.6998 26.5059C61.7424 26.4718 61.768 26.412 61.8575 26.2882C61.2865 23.6073 61.0735 20.8197 61.1289 18.0193C61.1928 14.6768 61.555 11.3683 62.4668 8.14103C62.8801 6.67679 63.3701 5.22962 64.1627 3.92333C64.6442 3.12931 65.1683 2.33103 65.8117 1.66934C67.972 -0.563303 70.7374 -0.563303 72.8935 1.69496C73.6094 2.44202 74.1888 3.3513 74.7129 4.25204C75.5396 5.67359 76.0381 7.24029 76.4472 8.82833C77.0309 11.0994 77.4059 13.4046 77.5423 15.744C77.5721 16.2648 77.619 16.7856 77.6573 17.2765C78.1985 17.601 78.4584 17.1655 78.7524 16.9435C80.9809 15.2872 83.4097 14.0492 86.1026 13.3662C92.1107 11.8336 97.667 12.8923 102.793 16.3374C103.083 16.5337 103.36 16.7514 103.641 16.9564C103.875 17.1228 104.114 17.2851 104.318 17.4302C104.906 17.2125 104.766 16.7344 104.8 16.3672C105.039 13.7974 105.494 11.2744 106.223 8.79844C106.688 7.22321 107.28 5.69921 108.098 4.27339C108.656 3.30434 109.308 2.40787 110.165 1.68215C112.24 -0.0851833 114.639 -0.0424944 116.637 1.80168C117.596 2.68962 118.273 3.77819 118.836 4.93934C119.888 7.11649 120.497 9.43451 120.885 11.8038C121.661 16.5081 121.691 21.2295 121.064 25.9766C122.227 27.0908 123.438 28.1794 124.558 29.3533C125.692 30.5443 126.561 31.936 127.319 33.396C128.078 34.8517 128.657 36.3757 129.1 37.9595C129.561 39.603 129.855 41.2764 129.889 42.9712C129.923 44.6019 129.829 46.2454 129.646 47.8676C129.467 49.4941 129.049 51.0949 128.385 52.5976C127.728 54.0874 126.978 55.5389 126.22 57.1141C126.339 57.3233 126.497 57.6264 126.689 57.9124C128.393 60.5036 129.284 63.3852 129.706 66.4332C130.127 69.4726 129.991 72.4993 129.463 75.5132C129.394 75.9059 129.394 76.3115 129.36 76.6999C130.025 77.0457 130.677 76.9006 131.308 76.9048C140.119 76.9134 148.935 76.9134 157.747 76.9134C158.271 76.9134 158.8 76.8878 159.324 76.9433C160.295 77.0414 160.802 77.5196 160.917 78.4886C161.007 79.2399 161.02 80.0041 161.024 80.7639C161.032 90.3519 161.024 99.9442 161.032 109.532C161.032 110.288 161.058 111.039 161.075 111.906L161.079 111.91ZM169.763 193.519C170.13 193.037 170.39 192.721 170.62 192.383C178.801 180.354 183.829 167.193 184.834 152.584C185.133 148.239 184.852 143.935 183.987 139.675C182.853 134.083 180.424 129.199 176.146 125.319C166.41 116.491 155.033 111.479 141.905 110.672C135.722 110.292 129.535 110.523 123.369 111.15C120.408 111.453 117.447 111.718 114.485 112.034C111.119 112.392 107.749 112.704 104.399 113.182C98.336 114.053 92.2854 114.996 86.2432 115.987C80.8616 116.87 75.4544 117.169 70.0173 116.9C68.5643 116.828 67.1113 116.631 65.6796 116.367C61.1757 115.534 56.9318 113.916 52.7688 112.042C47.6641 109.746 43.092 106.646 38.9588 102.885C37.3098 101.387 35.8142 99.7478 34.5615 97.8994C34.1694 97.3188 33.803 96.7126 33.509 96.0808C33.0999 95.2057 33.215 94.1342 34.1226 93.6091C34.5615 93.353 34.9236 92.9346 35.2688 92.5419C39.3679 87.8546 42.3463 82.5355 44.1359 76.5719C45.2566 72.8494 45.8489 69.0458 45.2949 65.144C45.0648 63.5218 44.6984 61.9337 43.7013 60.4823C42.4017 60.9647 41.3066 61.7288 40.2627 62.557C34.8384 66.8814 30.9013 72.3029 28.481 78.813C27.7865 80.6828 27.339 82.6167 27.3987 84.6401C27.4072 84.9859 27.403 85.3488 27.3177 85.6817C27.028 86.813 25.6559 87.1972 24.8251 86.369C24.5012 86.0446 24.2796 85.6177 24.0155 85.2335C23.1249 83.9315 22.2983 82.5825 21.3395 81.3317C18.7574 77.9635 15.715 75.082 12.0761 72.8707C10.2226 71.7394 8.25825 70.8515 6.12348 70.3947C5.16476 70.1898 4.19325 70.0575 3.16208 70.2965C3.09817 71.7949 3.31548 73.1695 3.57966 74.5399C4.63639 79.987 6.87342 84.8792 10.5038 89.0926C13.4226 92.4821 16.9251 95.0264 21.2671 96.2943C21.4929 96.3583 21.7103 96.4437 21.9276 96.5291C22.9246 96.9175 23.6064 97.5579 23.6874 98.702C23.7172 99.1075 23.8195 99.5088 23.8578 99.9186C24.4458 105.618 25.0807 111.312 25.6048 117.016C26.1971 123.483 26.93 129.925 28.1401 136.307C29.5036 143.5 31.3231 150.565 34.097 157.357C39.8835 171.521 48.691 183.397 60.9115 192.652C66.0375 196.533 71.3553 200.132 76.8903 203.402C81.522 206.138 86.3114 208.554 91.3437 210.458C100.824 214.04 110.616 215.991 120.774 215.871C123.165 215.845 125.555 215.688 127.946 215.577C133.332 215.325 138.603 214.351 143.818 213.028C147.107 212.191 150.29 211.043 153.222 209.293C158.391 206.202 162.754 202.176 166.619 197.583C166.793 197.374 167.053 197.173 166.879 196.78C166.746 196.751 166.589 196.678 166.431 196.678C161.906 196.682 157.487 195.901 153.124 194.787C144.751 192.652 136.873 189.348 129.659 184.541C127.174 182.885 124.814 181.071 122.735 178.919C122.087 178.249 121.495 177.519 120.919 176.789C120.711 176.524 120.583 176.179 120.476 175.85C120.434 175.713 120.497 175.461 120.6 175.385C120.766 175.265 121.073 175.133 121.205 175.21C121.754 175.53 122.291 175.888 122.773 176.302C125.398 178.548 128.184 180.567 131.15 182.334C135.121 184.699 139.276 186.693 143.584 188.354C150.256 190.932 157.117 192.751 164.279 193.259C166.082 193.387 167.884 193.425 169.759 193.51L169.763 193.519ZM125.854 76.9219C126.003 76.4182 126.148 76.0937 126.194 75.7565C126.39 74.3691 126.659 72.9817 126.723 71.5858C126.94 66.8643 126.28 62.3606 123.186 58.5271C123.148 58.4802 123.118 58.4332 123.084 58.3863C122.624 57.7673 122.551 57.0842 122.858 56.3969C123.092 55.8676 123.403 55.3681 123.698 54.8687C127.745 48.0512 127.814 41.1398 124.107 34.1857C122.82 31.7738 120.966 29.8272 118.614 28.4099C115.981 26.8218 113.156 26.0918 110.071 26.6041C109.785 26.6511 109.496 26.6938 109.202 26.7194C108.115 26.8133 107.267 26.4547 106.722 25.4558C106.359 24.7898 105.963 24.1367 105.529 23.5134C99.5333 14.903 88.101 13.3406 80.0136 20.0172C78.6544 21.1399 77.423 22.3992 76.4898 23.8934C75.5566 25.3832 74.3167 26.0534 72.5654 26.0107C70.9207 25.9723 69.3313 26.4035 67.7803 26.9499C59.8037 29.7631 54.7885 38.0918 55.9432 47.0651C56.3139 49.9466 57.2684 52.6317 58.8151 55.0906C59.4415 56.0896 59.4926 57.0159 58.8151 58.0277C57.7925 59.5474 57.2002 61.2592 56.723 63.018C55.6492 66.9625 55.4276 70.9796 55.8921 75.018C56.0583 76.4566 56.4716 77.8781 56.8764 79.2741C57.1874 80.3456 57.7669 81.2933 58.6234 82.0617C59.0111 82.4075 59.3222 82.8429 59.646 83.257C60.0806 83.8205 60.1147 84.4438 59.8079 85.0713C59.4713 85.7543 59.0921 86.4117 58.7597 87.0948C58.6447 87.3295 58.6021 87.607 58.4998 87.9613C60.8604 87.496 63.0719 87.0478 65.2919 86.6252C67.5843 86.1855 69.9193 86.2751 72.1819 86.2154C72.6336 85.6092 72.4759 85.0073 72.4802 84.4395C72.493 80.3456 72.4887 76.2517 72.4887 72.1621C72.4887 71.7522 72.4674 71.3424 72.4972 70.9326C72.608 69.4684 73.358 68.7085 74.8152 68.5804C75.0453 68.5591 75.2839 68.5676 75.514 68.5676C86.6012 68.5676 97.6926 68.5676 108.78 68.5676C109.129 68.5676 109.483 68.5591 109.828 68.6146C110.829 68.7725 111.366 69.3488 111.456 70.3691C111.503 70.8899 111.485 71.4193 111.485 71.9486C111.485 76.2773 111.485 80.6017 111.494 84.9304C111.494 85.4341 111.566 85.9421 111.601 86.3989C113.441 86.7447 115.167 87.0008 116.859 87.4064C118.542 87.8119 120.191 88.3669 121.933 88.8792C121.972 88.3327 122.027 87.9272 122.027 87.5259C122.036 85.1865 122.027 82.8472 122.027 80.5078C122.027 80.098 122.01 79.6882 122.036 79.2784C122.134 77.7757 122.845 77.0414 124.324 76.9347C124.784 76.9006 125.249 76.9305 125.858 76.9305L125.854 76.9219ZM157.798 80.0041H155.796C150.486 80.0041 145.177 80.0041 139.868 80.0041C135.552 80.0041 131.235 79.9998 126.915 80.0126C126.352 80.0126 125.751 79.8589 125.172 80.2816C125.151 80.5334 125.099 80.8194 125.099 81.1012C125.099 89.6945 125.099 98.2836 125.099 106.877C125.099 107.15 125.18 107.423 125.227 107.718C126.126 107.718 126.932 107.739 127.737 107.718C130.941 107.628 134.15 107.458 137.354 107.436C143.988 107.393 150.491 108.324 156.818 110.36C157.134 110.463 157.475 110.501 157.824 110.574C157.896 110.322 157.982 110.164 157.982 110.006C157.99 100.243 157.99 90.4843 157.982 80.7213C157.982 80.559 157.896 80.3968 157.786 80.0041H157.798ZM108.239 71.7352C107.906 71.6967 107.68 71.6498 107.455 71.6498C96.9597 71.6626 86.4648 71.6797 75.9699 71.6967C75.9146 71.6967 75.8506 71.7181 75.8038 71.7437C75.7569 71.7693 75.7228 71.8205 75.6802 71.859C75.4373 73.2378 75.4075 84.9987 75.6589 86.7746C76.1915 87.0094 76.7795 87.2484 77.3463 87.5302C80.2736 88.9944 81.2706 91.7052 79.9881 94.7233C79.3617 96.2004 78.3859 97.4298 77.244 98.5312C76.8222 98.9367 76.3577 99.2911 75.9486 99.7094C75.7569 99.9058 75.5524 100.183 75.5353 100.439C75.4885 101.118 75.3649 101.823 75.7313 102.582C76.3705 102.595 77.0054 102.621 77.636 102.621C87.023 102.621 96.4143 102.621 105.801 102.621C106.325 102.621 106.854 102.642 107.374 102.608C107.702 102.587 108.021 102.476 108.32 102.412V100.2C107.446 99.2142 106.632 98.3732 105.908 97.464C104.915 96.2089 104.233 94.7959 104.046 93.1822C103.765 90.7831 104.664 88.9645 106.734 87.7351C107.233 87.4405 107.761 87.2015 108.26 86.9453C108.464 85.4043 108.456 73.3147 108.234 71.7309L108.239 71.7352ZM111.592 102.749C111.545 103.065 111.528 103.291 111.481 103.517C111.136 105.174 110.548 105.665 108.856 105.703C108.567 105.712 108.273 105.703 107.983 105.703C97.3048 105.703 86.6225 105.703 75.9444 105.703C75.595 105.703 75.2456 105.712 74.8919 105.699C73.3793 105.643 72.7231 105.028 72.493 103.483C72.4376 103.103 72.6165 102.646 72.1137 102.348C71.8836 102.459 71.6195 102.565 71.3723 102.706C68.0658 104.593 64.576 106.053 60.9797 107.287C59.4969 107.795 58.0311 107.931 56.5057 107.624C56.1264 107.547 55.7344 107.522 55.206 107.458C55.2913 108.051 55.368 108.491 55.4106 108.939C55.4788 109.665 55.858 110.083 56.5483 110.326C57.9757 110.83 59.3733 111.423 60.8093 111.91C63.4128 112.789 66.0674 113.485 68.8115 113.72C73.7159 114.138 78.616 113.976 83.4778 113.272C89.6521 112.375 95.8007 111.312 101.975 110.403C105.32 109.912 108.69 109.571 112.052 109.195C114.66 108.9 117.276 108.666 119.884 108.384C120.246 108.345 120.689 108.418 120.975 107.919C119.905 107.368 118.87 106.856 117.851 106.301C116.773 105.716 115.725 105.084 114.651 104.495C113.646 103.94 112.764 103.159 111.588 102.753L111.592 102.749ZM69.9577 89.114C65.6029 89.1908 61.4058 90.1342 57.2982 91.5174C55.9986 91.9528 54.9035 92.734 53.9831 93.7329C51.9762 95.9229 51.6098 98.4672 52.479 101.238C52.7091 101.976 53.1522 102.599 53.7403 103.103C55.5384 104.644 57.5624 105.366 59.8889 104.555C61.9214 103.846 63.9454 103.09 65.9225 102.232C68.7092 101.02 71.3595 99.5429 73.7968 97.7116C74.8749 96.9005 75.8719 95.9997 76.6219 94.8642C76.9713 94.3348 77.2909 93.7585 77.4911 93.1566C77.9044 91.9058 77.5508 90.9752 76.4174 90.3263C75.8166 89.9848 75.1433 89.75 74.4786 89.5579C73.0085 89.1268 71.4831 89.1225 69.9662 89.114H69.9577ZM117.928 24.2861C118.022 24.0385 118.09 23.9318 118.099 23.8208C118.542 19.1933 118.363 14.5999 117.276 10.0663C116.91 8.5295 116.437 7.01403 115.614 5.65652C115.227 5.02045 114.711 4.44414 114.174 3.92333C113.705 3.46656 113.075 3.44522 112.576 3.87638C112.052 4.32461 111.554 4.83262 111.157 5.39611C110.314 6.60422 109.811 7.97881 109.368 9.37475C108.222 12.9692 107.868 16.6874 107.723 20.4313C107.71 20.76 107.804 21.1356 107.966 21.4174C108.375 22.1132 108.852 22.7664 109.248 23.3555C110.799 23.3555 112.206 23.2359 113.582 23.3896C115.009 23.5476 116.411 23.9659 117.928 24.2904V24.2861ZM64.8743 24.6447C67.5374 23.5518 70.1068 22.856 72.8168 22.7664C73.1151 22.7578 73.4687 22.5188 73.6818 22.2797C74.1079 21.8059 74.4317 21.2765 74.4488 20.5721C74.5383 16.585 74.3039 12.6362 73.1066 8.80698C72.7103 7.53911 72.1393 6.30966 71.53 5.1229C71.2189 4.52525 70.6906 4.00871 70.1707 3.56048C69.5955 3.06101 68.9989 3.06955 68.4322 3.5989C67.8868 4.1069 67.3925 4.70455 67.0048 5.33635C66.1441 6.74082 65.6583 8.30752 65.2833 9.89983C64.201 14.4932 64.0391 19.1335 64.6186 23.8037C64.6442 24.0214 64.7464 24.2306 64.8785 24.6404L64.8743 24.6447ZM121.861 92.0467C119.125 90.9795 116.317 90.0062 113.36 89.5963C111.92 89.4 110.45 89.3317 109.031 89.8354C107.067 90.5312 106.44 91.8546 107.139 93.8268C107.497 94.8343 108.098 95.6924 108.801 96.4821C109.896 97.7073 111.132 98.7788 112.5 99.6795C114.157 100.764 115.84 101.818 117.54 102.83C118.589 103.458 119.688 104.004 120.787 104.546C121.12 104.708 121.516 104.734 121.904 104.824C122.087 102.851 122.057 93.4341 121.861 92.0424V92.0467Z" fill="black"/>
<path d="M169.763 193.518C167.892 193.437 166.085 193.395 164.283 193.267C157.12 192.759 150.26 190.936 143.587 188.362C139.279 186.697 135.125 184.707 131.153 182.342C128.188 180.575 125.401 178.556 122.776 176.31C122.295 175.896 121.758 175.538 121.208 175.218C121.076 175.141 120.769 175.273 120.603 175.393C120.497 175.469 120.437 175.726 120.48 175.858C120.586 176.187 120.71 176.532 120.923 176.797C121.502 177.531 122.09 178.257 122.738 178.927C124.817 181.079 127.182 182.893 129.662 184.549C136.876 189.36 144.755 192.66 153.128 194.795C157.491 195.909 161.909 196.69 166.435 196.686C166.592 196.686 166.75 196.754 166.882 196.788C167.057 197.181 166.801 197.382 166.622 197.591C162.757 202.184 158.398 206.21 153.226 209.301C150.298 211.051 147.115 212.199 143.821 213.036C138.61 214.359 133.335 215.333 127.949 215.584C125.559 215.695 123.168 215.849 120.778 215.879C110.62 215.994 100.828 214.048 91.3472 210.466C86.3106 208.562 81.5213 206.146 76.8938 203.409C71.3588 200.139 66.041 196.541 60.915 192.66C48.6944 183.405 39.8869 171.529 34.1005 157.365C31.3266 150.577 29.5029 143.508 28.1436 136.315C26.9335 129.933 26.2006 123.491 25.6083 117.024C25.0842 111.32 24.4536 105.626 23.8613 99.9265C23.8187 99.521 23.7164 99.1197 23.6908 98.7099C23.6099 97.5658 22.9281 96.9255 21.931 96.537C21.7137 96.4516 21.4964 96.3705 21.2706 96.3022C16.9244 95.0386 13.4261 92.4901 10.5073 89.1006C6.8769 84.8871 4.63987 79.9949 3.58314 74.5478C3.31896 73.1775 3.10165 71.8029 3.16556 70.3045C4.19673 70.0654 5.16398 70.1978 6.12696 70.4027C8.26173 70.8594 10.2218 71.7517 12.0796 72.8786C15.7185 75.0942 18.7609 77.9757 21.343 81.3397C22.3018 82.5904 23.1284 83.9394 24.0189 85.2414C24.2831 85.6256 24.5047 86.0525 24.8285 86.377C25.6594 87.2052 27.0315 86.8209 27.3212 85.6897C27.4064 85.3567 27.4107 84.9938 27.4022 84.6481C27.3425 82.6246 27.7899 80.6908 28.4845 78.821C30.9047 72.3109 34.8419 66.8893 40.2662 62.5649C41.3059 61.7368 42.4052 60.9684 43.7048 60.4902C44.7061 61.9374 45.0683 63.5254 45.2984 65.1519C45.8566 69.0537 45.2601 72.8573 44.1394 76.5798C42.3498 82.5435 39.3671 87.8626 35.2723 92.5498C34.9271 92.9426 34.5692 93.3609 34.1261 93.6171C33.2185 94.1422 33.1077 95.2136 33.5125 96.0888C33.8065 96.7206 34.1729 97.3268 34.5649 97.9073C35.8177 99.7558 37.3133 101.391 38.9623 102.893C43.0997 106.654 47.6718 109.749 52.7722 112.05C56.931 113.924 61.1792 115.542 65.6831 116.375C67.1148 116.639 68.5678 116.836 70.0208 116.908C75.4578 117.177 80.8651 116.878 86.2467 115.995C92.2888 115.004 98.3437 114.061 104.403 113.19C107.752 112.708 111.122 112.4 114.489 112.042C117.446 111.726 120.411 111.457 123.373 111.158C129.539 110.531 135.726 110.296 141.908 110.68C155.041 111.491 166.413 116.498 176.15 125.327C180.432 129.207 182.857 134.095 183.99 139.683C184.855 143.948 185.136 148.246 184.838 152.592C183.832 167.2 178.804 180.362 170.623 192.391C170.393 192.729 170.133 193.045 169.767 193.527L169.763 193.518ZM130.012 147.559C129.901 138.159 122.482 130.68 113.036 130.659C103.892 130.637 96.1493 138.057 96.1791 147.653C96.209 157.083 103.691 164.575 113.134 164.545C122.747 164.515 129.969 156.801 130.012 147.559Z" fill="white"/>
<path d="M125.853 76.9212C125.244 76.9212 124.779 76.8914 124.319 76.9255C122.84 77.0322 122.124 77.7665 122.031 79.2691C122.005 79.6747 122.022 80.0888 122.022 80.4986C122.022 82.838 122.022 85.1773 122.022 87.5167C122.022 87.918 121.967 88.3235 121.928 88.8699C120.186 88.3577 118.537 87.8027 116.854 87.3972C115.162 86.9916 113.436 86.7355 111.596 86.3897C111.561 85.9329 111.493 85.4292 111.489 84.9212C111.48 80.5925 111.485 76.2681 111.48 71.9394C111.48 71.4143 111.498 70.885 111.451 70.3599C111.361 69.3396 110.824 68.7633 109.823 68.6054C109.478 68.5499 109.124 68.5584 108.775 68.5584C97.6876 68.5584 86.5962 68.5584 75.5091 68.5584C75.2747 68.5584 75.0403 68.5499 74.8102 68.5712C73.3572 68.6993 72.603 69.4592 72.4923 70.9234C72.4624 71.3289 72.4837 71.743 72.4837 72.1529C72.4837 76.2467 72.4923 80.3406 72.4752 84.4303C72.4752 84.998 72.6286 85.6042 72.1769 86.2061C69.9143 86.2616 67.5836 86.1763 65.2869 86.616C63.0712 87.0429 60.8597 87.4868 58.4948 87.9521C58.5971 87.5978 58.6397 87.3203 58.7548 87.0855C59.0914 86.4025 59.4706 85.7451 59.803 85.0621C60.1098 84.4345 60.0799 83.8113 59.6411 83.2478C59.3215 82.8337 59.0062 82.4025 58.6184 82.0525C57.7662 81.2841 57.1824 80.3364 56.8714 79.2649C56.4666 77.8647 56.049 76.4474 55.8871 75.0088C55.4269 70.9704 55.6485 66.9533 56.718 63.0088C57.1952 61.25 57.7875 59.5382 58.8102 58.0185C59.4877 57.011 59.4408 56.0804 58.8102 55.0814C57.2634 52.6225 56.3047 49.9374 55.9382 47.0559C54.7835 38.0826 59.7987 29.7539 67.7753 26.9407C69.3263 26.3943 70.9157 25.9631 72.5604 26.0015C74.3117 26.0442 75.5559 25.374 76.4848 23.8841C77.418 22.39 78.6494 21.135 80.0087 20.008C88.0918 13.3314 99.5284 14.8938 105.524 23.5042C105.958 24.1275 106.35 24.7806 106.717 25.4466C107.262 26.4455 108.114 26.8041 109.197 26.7102C109.486 26.6846 109.776 26.6419 110.066 26.5949C113.151 26.0784 115.976 26.8126 118.609 28.4007C120.961 29.8179 122.815 31.7646 124.102 34.1765C127.809 41.1306 127.741 48.042 123.693 54.8594C123.394 55.3589 123.087 55.8584 122.853 56.3877C122.546 57.075 122.619 57.758 123.079 58.377C123.113 58.424 123.143 58.4752 123.181 58.5179C126.27 62.3514 126.931 66.8551 126.718 71.5765C126.654 72.9725 126.385 74.3599 126.189 75.7473C126.143 76.0845 125.998 76.409 125.849 76.9127L125.853 76.9212ZM90.9254 41.7368C87.099 41.7069 83.5411 42.6631 80.2984 44.7208C78.5429 45.8349 77.1282 47.2992 76.1056 49.1092C74.2393 52.4262 74.2265 55.7815 76.0118 59.1412C76.5913 60.234 77.3541 61.186 78.2404 62.0483C79.7232 63.4955 81.4361 64.5883 83.3493 65.3567C88.3773 67.3802 93.4564 67.4698 98.5483 65.6342C100.943 64.7719 103.048 63.4314 104.752 61.5104C108.387 57.4208 108.523 52.0121 105.102 47.7474C103.802 46.1295 102.191 44.8872 100.359 43.9353C97.4021 42.4027 94.249 41.6856 90.9211 41.7282L90.9254 41.7368ZM112.086 45.011C109.751 44.9684 107.91 46.8595 108.076 49.122C108.289 51.9608 111.165 54.0697 113.939 53.4123C115.537 53.0366 116.67 51.7004 116.79 50.0569C116.977 47.4443 114.753 45.058 112.081 45.0068L112.086 45.011ZM70.3873 44.9342C67.6688 44.8958 65.3039 47.6578 65.7556 50.3557C66.1391 52.6524 68.1162 53.9672 70.3788 53.4422C72.667 52.9086 74.3202 50.471 73.9751 48.1402C73.7024 46.296 72.2068 44.9598 70.3873 44.9342Z" fill="white"/>
<path d="M157.802 80.0041C157.913 80.3925 157.998 80.5548 157.998 80.7212C158.002 90.4843 158.002 100.243 157.998 110.006C157.998 110.164 157.913 110.326 157.84 110.574C157.491 110.501 157.15 110.463 156.835 110.36C150.503 108.324 144.005 107.393 137.37 107.436C134.166 107.458 130.958 107.624 127.753 107.718C126.948 107.739 126.143 107.718 125.244 107.718C125.197 107.428 125.116 107.15 125.116 106.877C125.107 98.2836 125.107 89.6945 125.116 81.1012C125.116 80.8194 125.163 80.5334 125.188 80.2815C125.768 79.8589 126.369 80.0126 126.931 80.0126C131.247 79.9998 135.564 80.0041 139.884 80.0041C145.194 80.0041 150.503 80.0041 155.812 80.0041H157.815H157.802ZM151.436 94.194C151.436 91.6796 151.436 89.1694 151.436 86.655C151.436 86.1897 151.44 85.7159 151.355 85.2591C151.231 84.5974 150.631 84.1108 150.009 84.0681C149.382 84.0254 148.739 84.4309 148.56 85.1054C148.428 85.6049 148.389 86.1385 148.385 86.6593C148.364 88.5291 148.377 90.3989 148.377 92.2687C148.377 95.3636 148.368 98.4629 148.385 101.558C148.385 102.134 148.436 102.732 148.598 103.278C148.777 103.889 149.284 104.209 149.932 104.23C150.541 104.252 151.202 103.761 151.338 103.12C151.436 102.672 151.436 102.194 151.436 101.729C151.445 99.2142 151.436 96.7041 151.436 94.1897V94.194ZM135.415 96.3498H135.406C135.406 94.0702 135.406 91.7906 135.406 89.5109C135.406 89.0456 135.406 88.5718 135.334 88.115C135.214 87.3594 134.579 86.8258 133.893 86.8386C133.203 86.8514 132.598 87.3808 132.479 88.1492C132.406 88.6059 132.406 89.0798 132.406 89.5451C132.398 94.1043 132.398 98.6635 132.402 103.227C132.402 103.633 132.411 104.051 132.492 104.444C132.628 105.114 133.207 105.583 133.842 105.622C134.524 105.665 135.197 105.148 135.342 104.409C135.419 104.012 135.419 103.598 135.419 103.189C135.427 100.909 135.419 98.6294 135.419 96.3498H135.415ZM140.132 98.1342C140.132 98.1342 140.115 98.1342 140.106 98.1342C140.106 99.9442 140.097 101.75 140.11 103.56C140.11 104.025 140.127 104.499 140.234 104.947C140.387 105.592 141.035 106.04 141.661 106.01C142.309 105.98 142.773 105.639 142.982 105.041C143.114 104.666 143.161 104.243 143.161 103.842C143.161 100.106 143.148 96.3754 143.127 92.6401C143.127 92.2345 143.089 91.8204 142.986 91.4277C142.837 90.8599 142.271 90.4672 141.678 90.4416C141.022 90.416 140.391 90.8386 140.247 91.4917C140.144 91.94 140.136 92.4181 140.132 92.8791C140.119 94.6294 140.127 96.3796 140.127 98.1299L140.132 98.1342Z" fill="white"/>
<path d="M108.238 71.7354C108.459 73.3149 108.464 85.4045 108.263 86.9498C107.769 87.206 107.236 87.4408 106.738 87.7396C104.667 88.969 103.768 90.7876 104.049 93.1867C104.237 94.8004 104.918 96.2134 105.911 97.4685C106.636 98.382 107.449 99.223 108.323 100.205V102.416C108.025 102.48 107.701 102.591 107.377 102.613C106.853 102.647 106.329 102.625 105.805 102.625C96.4176 102.625 87.0264 102.625 77.6394 102.625C77.0088 102.625 76.3739 102.6 75.7347 102.587C75.3683 101.827 75.4918 101.123 75.5387 100.444C75.5557 100.188 75.7603 99.9103 75.952 99.7139C76.3611 99.2956 76.8255 98.9413 77.2474 98.5357C78.3936 97.4343 79.3651 96.2049 79.9915 94.7278C81.2698 91.7097 80.2769 88.9989 77.3496 87.5347C76.7829 87.2529 76.1949 87.0139 75.6623 86.7791C75.4109 85.0032 75.4364 73.2423 75.6836 71.8635C75.7219 71.825 75.756 71.7738 75.8071 71.7482C75.8583 71.7183 75.9179 71.7013 75.9733 71.7013C86.4682 71.6842 96.9631 71.6671 107.458 71.6543C107.684 71.6543 107.91 71.7013 108.242 71.7397L108.238 71.7354ZM101.885 85.8527C101.885 83.4024 101.889 80.952 101.88 78.5016C101.88 77.9808 101.867 77.4472 101.765 76.9392C101.608 76.1495 101.015 75.7354 100.257 75.7781C99.6006 75.8165 99.0467 76.2733 98.9189 76.9563C98.8422 77.3533 98.8464 77.7674 98.8464 78.1772C98.8464 83.253 98.8464 88.3287 98.8464 93.4045C98.8464 93.7545 98.8336 94.1088 98.8805 94.4546C98.9913 95.3297 99.5878 95.8847 100.368 95.8762C101.101 95.8719 101.65 95.4109 101.799 94.5998C101.88 94.143 101.885 93.6734 101.885 93.2081C101.893 90.7577 101.885 88.3074 101.885 85.857V85.8527ZM82.7995 87.7823H82.7952C82.7952 90.1772 82.7867 92.5763 82.8037 94.9711C82.8037 95.4279 82.8421 95.9146 82.9955 96.3415C83.2043 96.9349 83.6943 97.2678 84.3462 97.2678C84.9981 97.2678 85.4711 96.9263 85.6927 96.3329C85.829 95.9615 85.8759 95.5389 85.8802 95.1376C85.8887 90.3436 85.8844 85.5539 85.8716 80.7599C85.8716 80.3586 85.8248 79.936 85.7097 79.5561C85.5222 78.9456 85.0748 78.5913 84.4186 78.5443C83.7539 78.4974 83.1617 78.8858 82.9656 79.5689C82.8421 80.0086 82.808 80.4867 82.8037 80.9477C82.7867 83.2273 82.7952 85.5069 82.7952 87.7866L82.7995 87.7823ZM93.6139 89.9039H93.6011C93.6011 88.2134 93.6011 86.5187 93.6011 84.8282C93.6011 84.4184 93.6182 84.0086 93.5628 83.603C93.4392 82.6895 92.8853 82.1473 92.114 82.126C91.3257 82.1046 90.742 82.6083 90.5843 83.5048C90.5247 83.8463 90.5247 84.2007 90.5247 84.5507C90.5162 88.1708 90.5076 91.7865 90.5119 95.4066C90.5119 95.8079 90.546 96.2305 90.661 96.6104C90.8698 97.302 91.4237 97.6691 92.1055 97.6563C92.766 97.6435 93.3369 97.2337 93.5031 96.5421C93.6096 96.0981 93.6139 95.62 93.6139 95.1547C93.6267 93.4045 93.6182 91.6542 93.6182 89.9039H93.6139Z" fill="white"/>
<path d="M111.597 102.744C112.773 103.15 113.655 103.931 114.66 104.486C115.734 105.075 116.786 105.707 117.86 106.292C118.874 106.843 119.914 107.355 120.984 107.91C120.698 108.409 120.255 108.337 119.893 108.375C117.285 108.657 114.669 108.896 112.061 109.186C108.699 109.562 105.329 109.903 101.984 110.394C95.8095 111.304 89.6608 112.367 83.4866 113.263C78.6248 113.967 73.7204 114.134 68.8202 113.711C66.0762 113.476 63.4215 112.781 60.8181 111.901C59.3821 111.415 57.9845 110.821 56.5571 110.317C55.871 110.074 55.4918 109.656 55.4194 108.93C55.3768 108.482 55.2958 108.042 55.2148 107.449C55.7432 107.513 56.1352 107.538 56.5145 107.615C58.0399 107.918 59.5057 107.782 60.9885 107.278C64.5848 106.044 68.0746 104.589 71.3811 102.697C71.6283 102.557 71.8924 102.45 72.1225 102.339C72.6253 102.638 72.4464 103.094 72.5018 103.474C72.7276 105.024 73.3838 105.634 74.9007 105.69C75.2501 105.703 75.5995 105.694 75.9532 105.694C86.6313 105.694 97.3136 105.694 107.992 105.694C108.281 105.694 108.575 105.699 108.865 105.694C110.557 105.656 111.145 105.169 111.49 103.509C111.537 103.287 111.558 103.056 111.601 102.74L111.597 102.744Z" fill="white"/>
<path d="M69.9608 89.1133C71.482 89.1218 73.0032 89.1304 74.4733 89.5572C75.138 89.7536 75.8155 89.9841 76.412 90.3257C77.5454 90.9745 77.8991 91.9052 77.4858 93.156C77.2898 93.7579 76.9659 94.3299 76.6165 94.8635C75.8709 95.9991 74.8738 96.8998 73.7915 97.7109C71.3542 99.5465 68.7038 101.019 65.9171 102.232C63.9443 103.09 61.9203 103.845 59.8836 104.554C57.557 105.365 55.5331 104.644 53.7349 103.103C53.1469 102.599 52.708 101.976 52.4737 101.237C51.6087 98.4622 51.9709 95.9179 53.9778 93.7323C54.8982 92.7291 55.989 91.9521 57.2929 91.5167C61.4047 90.1336 65.5976 89.1901 69.9523 89.1133H69.9608Z" fill="white"/>
<path d="M117.933 24.2855C116.42 23.9611 115.018 23.5427 113.587 23.3848C112.21 23.2353 110.804 23.3506 109.253 23.3506C108.857 22.7615 108.38 22.1083 107.971 21.4125C107.804 21.1308 107.715 20.7551 107.728 20.4264C107.877 16.6825 108.231 12.9686 109.373 9.36988C109.816 7.97395 110.323 6.59935 111.162 5.39125C111.554 4.82775 112.057 4.31975 112.581 3.87151C113.08 3.44035 113.71 3.4617 114.179 3.91847C114.716 4.43928 115.231 5.01558 115.619 5.65165C116.446 7.00917 116.914 8.52037 117.281 10.0614C118.363 14.595 118.542 19.1884 118.103 23.8159C118.095 23.9269 118.027 24.0336 117.933 24.2812V24.2855Z" fill="white"/>
<path d="M64.8787 24.6401C64.7509 24.2303 64.6486 24.0211 64.6188 23.8034C64.0393 19.1289 64.2012 14.4886 65.2835 9.8995C65.6585 8.3072 66.14 6.7405 67.0049 5.33603C67.397 4.69996 67.8912 4.10658 68.4324 3.59857C68.9991 3.06923 69.5956 3.06069 70.1709 3.56015C70.6907 4.00839 71.2191 4.52493 71.5301 5.12258C72.1437 6.30507 72.7104 7.53452 73.1067 8.80666C74.3041 12.6359 74.5384 16.5889 74.4489 20.5718C74.4319 21.2762 74.108 21.8055 73.6819 22.2794C73.4689 22.5142 73.1152 22.7532 72.817 22.766C70.107 22.86 67.5376 23.5515 64.8744 24.6444L64.8787 24.6401Z" fill="white"/>
<path d="M121.865 92.0461C122.061 93.4377 122.091 102.855 121.908 104.827C121.524 104.738 121.124 104.712 120.791 104.55C119.696 104.008 118.597 103.461 117.544 102.834C115.84 101.818 114.161 100.767 112.504 99.6832C111.132 98.7867 109.896 97.7152 108.805 96.4857C108.102 95.696 107.501 94.8379 107.143 93.8305C106.445 91.8582 107.071 90.5349 109.035 89.839C110.454 89.3353 111.924 89.3993 113.364 89.6C116.322 90.0098 119.13 90.9831 121.865 92.0503V92.0461Z" fill="white"/>
<path d="M130.012 147.56C129.97 156.802 122.747 164.516 113.134 164.546C103.692 164.576 96.2096 157.08 96.1798 147.654C96.1499 138.057 103.896 130.638 113.036 130.659C122.483 130.681 129.897 138.164 130.012 147.56ZM126.416 144.495C126.173 144.999 126.049 145.25 125.934 145.502C124.997 147.513 123.356 148.426 121.205 148.546C119.965 148.614 118.767 148.418 117.608 147.97C115.141 147.013 113.164 145.438 111.673 143.253C110.974 142.228 110.463 141.114 110.224 139.897C109.832 137.887 110.177 136.064 111.698 134.574C111.882 134.395 112.026 134.177 112.252 133.895C104.122 134.386 98.5702 141.502 99.3713 148.973C100.334 157.925 108.639 162.651 115.857 161.161C123.254 159.637 128.342 151.957 126.416 144.495Z" fill="black"/>
<path d="M90.9247 41.7375C94.2526 41.6905 97.4057 42.412 100.363 43.9403C102.195 44.888 103.806 46.1345 105.105 47.7524C108.531 52.0171 108.395 57.4258 104.756 61.5154C103.052 63.4322 100.942 64.7769 98.5519 65.6392C93.46 67.4748 88.3809 67.3809 83.3529 65.3617C81.4397 64.5933 79.7268 63.4962 78.244 62.0533C77.3619 61.191 76.5992 60.2347 76.0155 59.1462C74.2258 55.7865 74.2386 52.4312 76.1092 49.1142C77.1276 47.3042 78.5465 45.8399 80.302 44.7257C83.5404 42.6681 87.0983 41.7119 90.9247 41.7418V41.7375ZM91.3679 63.6285C93.7455 63.667 96.1274 63.1888 98.3943 62.1515C99.7876 61.5154 101.045 60.6744 102.101 59.556C104.969 56.5336 105.033 52.5763 102.259 49.4514C101.36 48.4354 100.307 47.5987 99.0973 46.9883C93.9202 44.3672 88.6834 44.2732 83.4253 46.7236C82.0405 47.3682 80.8304 48.3031 79.8333 49.4728C77.4472 52.2647 77.3577 55.714 79.5819 58.6339C80.6259 60.0085 81.9681 61.0288 83.4893 61.81C85.9266 63.0608 88.5215 63.6413 91.3636 63.6243L91.3679 63.6285Z" fill="black"/>
<path d="M112.09 45.0117C114.762 45.0587 116.986 47.4493 116.799 50.0619C116.68 51.7054 115.546 53.0416 113.948 53.4172C111.174 54.0704 108.298 51.9658 108.085 49.127C107.915 46.8644 109.76 44.9733 112.095 45.016L112.09 45.0117Z" fill="black"/>
<path d="M70.3925 44.9351C72.212 44.9607 73.7076 46.2968 73.9803 48.141C74.3255 50.4718 72.6722 52.9094 70.384 53.443C68.1172 53.9724 66.1401 52.6533 65.7608 50.3566C65.3092 47.6586 67.6698 44.8924 70.3925 44.9351Z" fill="black"/>
<path d="M151.436 94.194C151.436 96.7084 151.441 99.2185 151.436 101.733C151.436 102.198 151.436 102.676 151.338 103.125C151.198 103.765 150.541 104.256 149.932 104.235C149.289 104.213 148.777 103.893 148.598 103.283C148.437 102.736 148.39 102.138 148.385 101.562C148.364 98.4672 148.377 95.368 148.377 92.273C148.377 90.4032 148.364 88.5334 148.385 86.6636C148.39 86.1428 148.428 85.6092 148.56 85.1097C148.739 84.4353 149.382 84.0297 150.009 84.0724C150.631 84.1151 151.232 84.6017 151.355 85.2634C151.441 85.7159 151.436 86.1941 151.436 86.6594C151.445 89.1738 151.436 91.6839 151.436 94.1983V94.194Z" fill="black"/>
<path d="M135.415 96.3493C135.415 98.6289 135.415 100.908 135.415 103.188C135.415 103.594 135.415 104.012 135.339 104.409C135.194 105.143 134.52 105.664 133.839 105.621C133.204 105.583 132.624 105.109 132.488 104.443C132.407 104.046 132.398 103.632 132.398 103.227C132.398 98.6673 132.398 94.1081 132.403 89.5446C132.403 89.0793 132.403 88.6055 132.475 88.1487C132.594 87.376 133.2 86.8509 133.89 86.8381C134.576 86.8253 135.211 87.3589 135.33 88.1145C135.402 88.5713 135.402 89.0451 135.402 89.5105C135.411 91.7901 135.402 94.0697 135.402 96.3493H135.411H135.415Z" fill="black"/>
<path d="M140.132 98.1338C140.132 96.3835 140.123 94.6332 140.136 92.883C140.136 92.4177 140.153 91.9438 140.251 91.4956C140.396 90.8467 141.026 90.4198 141.683 90.4454C142.271 90.4668 142.842 90.8595 142.991 91.4315C143.093 91.82 143.131 92.2384 143.131 92.6439C143.153 96.3792 143.165 100.11 143.165 103.846C143.165 104.247 143.118 104.669 142.986 105.045C142.778 105.643 142.309 105.98 141.665 106.014C141.039 106.044 140.391 105.596 140.238 104.951C140.132 104.503 140.119 104.029 140.114 103.564C140.102 101.754 140.11 99.9481 140.11 98.138C140.119 98.138 140.127 98.138 140.136 98.138L140.132 98.1338Z" fill="black"/>
<path d="M101.885 85.852C101.885 88.3024 101.885 90.7527 101.885 93.2031C101.885 93.6684 101.885 94.1423 101.799 94.5948C101.654 95.4059 101.1 95.8626 100.368 95.8712C99.5878 95.8755 98.9955 95.3205 98.8805 94.4496C98.8379 94.1039 98.8464 93.7495 98.8464 93.3995C98.8464 88.3237 98.8464 83.248 98.8464 78.1722C98.8464 77.7667 98.8464 77.3483 98.9188 76.9513C99.0467 76.2683 99.6006 75.8158 100.257 75.7731C101.015 75.7261 101.608 76.1445 101.765 76.9342C101.867 77.4422 101.876 77.9759 101.88 78.4967C101.893 80.947 101.885 83.3974 101.885 85.8478V85.852Z" fill="black"/>
<path d="M82.8049 87.7822C82.8049 85.5026 82.7963 83.223 82.8134 80.9434C82.8134 80.4823 82.8475 80.0042 82.9753 79.5645C83.1713 78.8815 83.7636 78.493 84.4283 78.54C85.0802 78.5826 85.5319 78.937 85.7194 79.5517C85.8344 79.9359 85.8813 80.3542 85.8813 80.7555C85.8941 85.5495 85.8984 90.3393 85.8898 95.1333C85.8898 95.5345 85.843 95.9572 85.7024 96.3286C85.4808 96.9219 85.0078 97.2634 84.3559 97.2634C83.7039 97.2634 83.2139 96.9347 83.0051 96.3371C82.856 95.9102 82.8176 95.4278 82.8134 94.9668C82.7963 92.5719 82.8049 90.1728 82.8049 87.7779H82.8091L82.8049 87.7822Z" fill="black"/>
<path d="M93.6191 89.899C93.6191 91.6493 93.6277 93.3995 93.6149 95.1498C93.6149 95.6151 93.6106 96.089 93.5041 96.5372C93.3379 97.2245 92.7669 97.6343 92.1065 97.6514C91.4247 97.6642 90.8708 97.3013 90.662 96.6055C90.5469 96.2213 90.5129 95.8029 90.5129 95.4017C90.5086 91.7816 90.5171 88.1658 90.5256 84.5458C90.5256 84.1957 90.5256 83.8414 90.5853 83.4999C90.7472 82.6034 91.3267 82.0954 92.115 82.121C92.8862 82.1424 93.4402 82.6845 93.5637 83.5981C93.6191 83.9994 93.6021 84.4135 93.6021 84.8233C93.6021 86.5138 93.6021 88.2085 93.6021 89.899H93.6149H93.6191Z" fill="black"/>
<path d="M126.416 144.494C128.342 151.956 123.255 159.636 115.857 161.16C108.639 162.646 100.335 157.92 99.3717 148.972C98.5706 141.502 104.123 134.385 112.253 133.895C112.027 134.176 111.882 134.394 111.699 134.573C110.178 136.063 109.832 137.89 110.224 139.897C110.463 141.113 110.974 142.227 111.673 143.252C113.165 145.438 115.142 147.013 117.609 147.969C118.768 148.417 119.965 148.614 121.205 148.545C123.357 148.426 124.993 147.512 125.935 145.502C126.054 145.25 126.178 144.998 126.416 144.494Z" fill="white"/>
<path d="M91.3697 63.6286C88.5276 63.6456 85.9326 63.0651 83.4953 61.8143C81.9699 61.0331 80.6319 60.0128 79.588 58.6382C77.3637 55.714 77.4532 52.2647 79.8394 49.4771C80.8407 48.3074 82.0466 47.3725 83.4314 46.7279C88.6895 44.2775 93.9263 44.3715 99.1034 46.9926C100.314 47.603 101.362 48.444 102.265 49.4557C105.039 52.5806 104.975 56.5379 102.107 59.5603C101.046 60.6787 99.7937 61.5197 98.4003 62.1558C96.1335 63.1889 93.7516 63.6713 91.3739 63.6328L91.3697 63.6286ZM91.1992 52.7513C90.6879 52.4098 90.3129 52.1324 89.9124 51.9018C89.0389 51.3981 88.1952 51.4963 87.7052 52.1238C87.1854 52.7898 87.3004 53.5923 88.0248 54.3052C88.2336 54.5101 88.4551 54.7108 88.7065 54.8517C89.4778 55.2871 89.661 55.9658 89.5886 56.7812C89.546 57.2465 89.4906 57.7161 89.5161 58.1771C89.5758 59.206 90.1851 59.7353 91.2333 59.731C92.2773 59.7225 92.8482 59.1932 92.8951 58.1302C92.9164 57.6094 92.8823 57.08 92.8397 56.5592C92.7843 55.8549 93.0102 55.334 93.611 54.9242C94.0371 54.6339 94.4504 54.2754 94.7487 53.8613C95.3963 52.9563 94.8467 51.6969 93.7772 51.6115C93.3937 51.5817 92.9633 51.6884 92.6096 51.8506C92.1452 52.0683 91.7319 52.4013 91.1992 52.7513Z" fill="white"/>
<path d="M91.203 52.7513C91.7357 52.4012 92.1447 52.0683 92.6134 51.8506C92.9671 51.6883 93.3975 51.5773 93.7809 51.6115C94.8505 51.6969 95.4001 52.9562 94.7525 53.8612C94.4542 54.2753 94.0409 54.6339 93.6148 54.9242C93.014 55.334 92.7881 55.8591 92.8435 56.5592C92.8861 57.08 92.9202 57.6093 92.8989 58.1301C92.8521 59.1931 92.2811 59.7224 91.2371 59.731C90.1889 59.7395 89.5796 59.2102 89.5199 58.1771C89.4944 57.7161 89.5498 57.2465 89.5924 56.7812C89.6648 55.9658 89.4816 55.287 88.7103 54.8516C88.4589 54.7107 88.2374 54.5101 88.0286 54.3052C87.3 53.5923 87.1892 52.7854 87.709 52.1238C88.199 51.4962 89.0427 51.398 89.9162 51.9018C90.3168 52.1323 90.6917 52.4098 91.203 52.7513Z" fill="black"/>
</g>
<defs>
<clipPath id="clip0_1883_1069">
<rect width="188" height="219" fill="white"/>
</clipPath>
</defs>
</svg>
